<svg xmlns="http://www.w3.org/2000/svg" viewBox="0 0 510.8 114.2"><path fill="#fcfcfd" d="M83 71.9V0h14v72.7c0 3.5 1.6 4.8 3 4.8.6 0 1.1 0 2.2-.2L104 88c-1.7.7-4 1.2-7.4 1.2-9.9-.1-13.6-6.6-13.6-17.3zm24.6-15.2c0-20.3 13.8-32 29-32s29 11.7 29 32c0 20.2-13.8 31.9-29 31.9s-29-11.8-29-31.9zm43.3 0c0-12.2-5.4-20.3-14.3-20.3s-14.3 8.1-14.3 20.3 5.4 20.2 14.3 20.2 14.3-8 14.3-20.2zm20.3 41.8c0-5.1 3.2-9.6 8.8-13V85c-3.2-2-5.6-5.3-5.6-10.2 0-4.7 6.6-11.4 6.6-11.4v.5c-4.2-3.2-8.1-9.2-8.1-16.7 0-14.5 11.4-22.7 24.1-22.7 3.4 0 6.6.6 9.1 1.5H228v11h-11.1s3.5 6 3.5 10.2c0 13.5-10.3 20.8-23.2 20.8-2.6 0-5.5-.5-8.2-1.6-1.8 1.6-3 3.1-3 5.8 0 3.4 2.5 5.5 9.9 5.8h10.8c14.6-.3 22.3 4.2 22.3 14.7 0 12-12.6 21.5-32.5 21.5-14.5.2-25.3-5-25.3-15.7zm44.3-3.4c0-4.7-3.8-6.1-10.7-6.1h-8.4c-3.3 0-5.9-.2-8.2-.8-3.3 2.5-4.7 5.2-4.7 8 0 5.6 6 8.8 15.5 8.8 9.8 0 16.5-4.6 16.5-9.9zm-7.4-48.6c0-7.6-4.6-12-10.6-12s-10.5 4.3-10.5 12 4.7 12.3 10.6 12.3 10.5-4.5 10.5-12.3zm23.7 10.2c0-20.3 13.8-32 29-32s29 11.7 29 32c0 20.2-13.8 31.9-29 31.9s-29-11.8-29-31.9zm43.3 0c0-12.2-5.4-20.3-14.3-20.3s-14.3 8.1-14.3 20.3 5.4 20.2 14.3 20.2c9 0 14.3-8 14.3-20.2zM300 71.9V0h14v72.7c0 3.5 1.6 4.8 3 4.8.6 0 1.1 0 2.2-.2L321 88c-1.7.7-4 1.2-7.4 1.2-9.9-.1-13.6-6.6-13.6-17.3zm24.7-15.2c0-20.3 13.8-32 29-32s29 11.7 29 32c0 20.2-13.8 31.9-29 31.9s-29-11.8-29-31.9zm43.2 0c0-12.2-5.4-20.3-14.3-20.3s-14.3 8.1-14.3 20.3 5.4 20.2 14.3 20.2 14.3-8 14.3-20.2zm20.3 41.8c0-5.1 3.2-9.6 8.8-13V85c-3.1-2-5.5-5.3-5.5-10.2 0-4.7 6.5-11.4 6.5-11.4v.5c-4.2-3.2-8.1-9.2-8.1-16.7 0-14.5 11.4-22.7 24.1-22.7 3.4 0 6.6.6 9.1 1.5H445v11h-11.1s3.5 6 3.5 10.2c0 13.5-10.3 20.8-23.2 20.8-2.6 0-5.5-.5-8.2-1.6-1.8 1.6-3 3.1-3 5.8 0 3.4 2.5 5.5 9.9 5.8h10.8c14.6-.3 22.3 4.2 22.3 14.7 0 12-12.6 21.5-32.5 21.5-14.4.2-25.3-5-25.3-15.7zm44.4-3.4c0-4.7-3.8-6.1-10.7-6.1h-8.4c-3.3 0-5.9-.2-8.2-.8-3.3 2.5-4.7 5.2-4.7 8 0 5.6 6 8.8 15.5 8.8 9.8 0 16.5-4.6 16.5-9.9zm-7.5-48.6c0-7.6-4.6-12-10.6-12s-10.6 4.3-10.6 12 4.7 12.3 10.6 12.3 10.6-4.5 10.6-12.3zm31 64l2.6-11c1.2.3 2.9.8 4.4.8 6.4 0 10.1-4.4 12.1-10.4l1.1-3.8L452.5 26H467l10.5 29.8c1.8 5.4 3.6 11.4 5.3 17.2h.5c1.5-5.6 3.1-11.6 4.7-17.2l9-29.8h13.8l-22 63.6c-5.1 13.7-11.4 22.2-24.7 22.2-3.4 0-5.7-.5-8-1.3zM62.5 0L37.9 70.1 13.4 0H0l31.2 89.3h13.1L75.7 0z"/><path fill="#fcfcfd" d="M37.8 33.4l6.1 20.2L62.7 0H48z"/><path fill="#fbb53b" d="M37.9 70.6l6-17.2L27.9 0H13.3l2.4 7.1z"/><path fill="#f7dd38" d="M62.5 0h13.2L44.3 89.3H31.2z"/></svg>